ffmpeg started on 2026-04-01 at 11:13:19
Report written to "D:\Convert\FFMetrics\reports\psnr_report-6.txt"
Log level: 32
Command line:
ffmpeg -hide_banner -nostdin -r 24000/1001 -i "F:\\Convert\\files\\[DC] Make Heroine ga Oosugiru - 07_Telegram_HEVC(265).mkv" -r 24000/1001 -i "F:\\Convert\\files\\[DC] Make Heroine ga Oosugiru - 07_Telegram.mp4" -lavfi "[0:v]settb=AVTB,setpts=PTS-STARTPTS,format=pix_fmts=yuv420p10le,fps=24000/1001,scale=1920:1080:flags=lanczos:param0=3:out_range=limited:out_color_matrix=bt709:out_chroma_loc=left,setsar=1/1,setdar=(1920/1080)*(1/1),colorspace=format=yuv420p10:range=tv:primaries=bt709:trc=bt709:space=bt709:fast=0[main];[1:v]settb=AVTB,setpts=PTS-STARTPTS,format=pix_fmts=yuv420p,fps=24000/1001,scale=1920:1080:flags=lanczos:param0=3:out_range=limited:out_color_matrix=bt709:out_chroma_loc=left,setsar=1/1,setdar=(1920/1080)*(1/1),colorspace=format=yuv420p:range=tv:primaries=bt709:trc=bt709:space=bt709:fast=0[ref];[main][ref]psnr=eof_action=endall:stats_file='D\\:/Convert/FFMetrics/logs/psnr_logfile-6.txt'" -f null -
Input #0, matroska,webm, from 'F:\Convert\files\[DC] Make Heroine ga Oosugiru - 07_Telegram_HEVC(265).mkv':
  Metadata:
    COMPATIBLE_BRANDS: isomiso2avc1mp41
    MAJOR_BRAND     : isom
    MINOR_VERSION   : 512
    ENCODER         : Lavf61.7.100
  Duration: 00:24:06.79, start: -0.021000, bitrate: 949 kb/s
  Stream #0:0: Video: hevc (Main 10), yuv420p10le(tv, bt709, progressive), 1920x1080 [SAR 1:1 DAR 16:9], 23.98 fps, 23.98 tbr, 1k tbn (default)
      Metadata:
        HANDLER_NAME    : VideoHandler
        VENDOR_ID       : [0][0][0][0]
        ENCODER         : Lavc61.19.100 libx265
        BPS             : 752342
        DURATION        : 00:24:06.569708333
        NUMBER_OF_FRAMES: 34683
        NUMBER_OF_BYTES : 136039330
        _STATISTICS_WRITING_APP: mkvpropedit v94.0 ('Initiate') 64-bit
        _STATISTICS_WRITING_DATE_UTC: 2026-03-30 11:10:01
        _STATISTICS_TAGS: BPS DURATION NUMBER_OF_FRAMES NUMBER_OF_BYTES
  Stream #0:1: Audio: aac (LC), 48000 Hz, stereo, fltp (default)
      Metadata:
        HANDLER_NAME    : SoundHandler
        VENDOR_ID       : [0][0][0][0]
        ENCODER         : Lavc61.19.100 aac
        BPS             : 193194
        DURATION        : 00:24:06.784000000
        NUMBER_OF_FRAMES: 67819
        NUMBER_OF_BYTES : 34938755
        _STATISTICS_WRITING_APP: mkvpropedit v94.0 ('Initiate') 64-bit
        _STATISTICS_WRITING_DATE_UTC: 2026-03-30 11:10:01
        _STATISTICS_TAGS: BPS DURATION NUMBER_OF_FRAMES NUMBER_OF_BYTES
Input #1, mov,mp4,m4a,3gp,3g2,mj2, from 'F:\Convert\files\[DC] Make Heroine ga Oosugiru - 07_Telegram.mp4':
  Metadata:
    major_brand     : isom
    minor_version   : 512
    compatible_brands: isomiso2avc1mp41
    encoder         : Lavf60.16.100
  Duration: 00:24:06.74, start: 0.000000, bitrate: 3764 kb/s
  Stream #1:0[0x1](und): Video: h264 (High) (avc1 / 0x31637661), yuv420p(tv, bt709, progressive), 1920x1080 [SAR 1:1 DAR 16:9], 3616 kb/s, 23.98 fps, 23.98 tbr, 24k tbn (default)
      Metadata:
        handler_name    : VideoHandler
        vendor_id       : [0][0][0][0]
        encoder         : Lavc60.31.102 h264_qsv
  Stream #1:1[0x2](und): Audio: aac (HE-AACv2) (mp4a / 0x6134706D), 48000 Hz, stereo, fltp, 144 kb/s (default)
      Metadata:
        handler_name    : SoundHandler
        vendor_id       : [0][0][0][0]
Stream mapping:
  Stream #0:0 (hevc) -> settb:default
  Stream #1:0 (h264) -> settb:default
  psnr:default -> Stream #0:0 (wrapped_avframe)
  Stream #0:1 -> #0:1 (aac (native) -> pcm_s16le (native))
Output #0, null, to 'pipe:':
  Metadata:
    COMPATIBLE_BRANDS: isomiso2avc1mp41
    MAJOR_BRAND     : isom
    MINOR_VERSION   : 512
    encoder         : Lavf61.7.100
  Stream #0:0: Video: wrapped_avframe, yuv420p10le(tv, bt709, progressive), 1920x1080 [SAR 1:1 DAR 16:9], q=2-31, 200 kb/s, 23.98 fps, 23.98 tbn
      Metadata:
        encoder         : Lavc61.19.100 wrapped_avframe
  Stream #0:1: Audio: pcm_s16le, 48000 Hz, stereo, s16, 1536 kb/s (default)
      Metadata:
        HANDLER_NAME    : SoundHandler
        VENDOR_ID       : [0][0][0][0]
        _STATISTICS_TAGS: BPS DURATION NUMBER_OF_FRAMES NUMBER_OF_BYTES
        BPS             : 193194
        DURATION        : 00:24:06.784000000
        NUMBER_OF_FRAMES: 67819
        NUMBER_OF_BYTES : 34938755
        _STATISTICS_WRITING_APP: mkvpropedit v94.0 ('Initiate') 64-bit
        _STATISTICS_WRITING_DATE_UTC: 2026-03-30 11:10:01
        encoder         : Lavc61.19.100 pcm_s16le
frame=  128 fps=0.0 q=-0.0 size=N/A time=00:00:05.33 bitrate=N/A speed=10.6x    frame=  326 fps=316 q=-0.0 size=N/A time=00:00:13.59 bitrate=N/A speed=13.2x    frame=  529 fps=343 q=-0.0 size=N/A time=00:00:22.06 bitrate=N/A speed=14.3x    frame=  726 fps=354 q=-0.0 size=N/A time=00:00:30.28 bitrate=N/A speed=14.8x    frame=  912 fps=354 q=-0.0 size=N/A time=00:00:38.03 bitrate=N/A speed=14.7x    frame= 1064 fps=344 q=-0.0 size=N/A time=00:00:44.37 bitrate=N/A speed=14.4x    frame= 1219 fps=338 q=-0.0 size=N/A time=00:00:50.84 bitrate=N/A speed=14.1x    frame= 1382 fps=336 q=-0.0 size=N/A time=00:00:57.64 bitrate=N/A speed=  14x    frame= 1538 fps=331 q=-0.0 size=N/A time=00:01:04.14 bitrate=N/A speed=13.8x    frame= 1678 fps=326 q=-0.0 size=N/A time=00:01:09.98 bitrate=N/A speed=13.6x    frame= 1843 fps=326 q=-0.0 size=N/A time=00:01:16.86 bitrate=N/A speed=13.6x    frame= 2012 fps=325 q=-0.0 size=N/A time=00:01:23.91 bitrate=N/A speed=13.6x    frame= 2117 fps=316 q=-0.0 size=N/A time=00:01:28.29 bitrate=N/A speed=13.2x    frame= 2269 fps=314 q=-0.0 size=N/A time=00:01:34.63 bitrate=N/A speed=13.1x    frame= 2416 fps=313 q=-0.0 size=N/A time=00:01:40.76 bitrate=N/A speed=  13x    frame= 2549 fps=309 q=-0.0 size=N/A time=00:01:46.31 bitrate=N/A speed=12.9x    frame= 2722 fps=311 q=-0.0 size=N/A time=00:01:53.53 bitrate=N/A speed=  13x    frame= 2894 fps=312 q=-0.0 size=N/A time=00:02:00.70 bitrate=N/A speed=  13x    frame= 3071 fps=314 q=-0.0 size=N/A time=00:02:08.08 bitrate=N/A speed=13.1x    frame= 3262 fps=317 q=-0.0 size=N/A time=00:02:16.05 bitrate=N/A speed=13.2x    frame= 3452 fps=319 q=-0.0 size=N/A time=00:02:23.97 bitrate=N/A speed=13.3x    frame= 3651 fps=322 q=-0.0 size=N/A time=00:02:32.27 bitrate=N/A speed=13.4x    frame= 3847 fps=325 q=-0.0 size=N/A time=00:02:40.45 bitrate=N/A speed=13.5x    frame= 4042 fps=327 q=-0.0 size=N/A time=00:02:48.58 bitrate=N/A speed=13.6x    frame= 4240 fps=329 q=-0.0 size=N/A time=00:02:56.84 bitrate=N/A speed=13.7x    frame= 4436 fps=331 q=-0.0 size=N/A time=00:03:05.01 bitrate=N/A speed=13.8x    frame= 4628 fps=333 q=-0.0 size=N/A time=00:03:13.02 bitrate=N/A speed=13.9x    frame= 4821 fps=334 q=-0.0 size=N/A time=00:03:21.07 bitrate=N/A speed=13.9x    frame= 5013 fps=335 q=-0.0 size=N/A time=00:03:29.08 bitrate=N/A speed=  14x    frame= 5196 fps=336 q=-0.0 size=N/A time=00:03:36.71 bitrate=N/A speed=  14x    frame= 5391 fps=337 q=-0.0 size=N/A time=00:03:44.84 bitrate=N/A speed=14.1x    frame= 5587 fps=339 q=-0.0 size=N/A time=00:03:53.02 bitrate=N/A speed=14.1x    frame= 5783 fps=340 q=-0.0 size=N/A time=00:04:01.19 bitrate=N/A speed=14.2x    frame= 5970 fps=341 q=-0.0 size=N/A time=00:04:08.99 bitrate=N/A speed=14.2x    frame= 6173 fps=342 q=-0.0 size=N/A time=00:04:17.46 bitrate=N/A speed=14.3x    frame= 6354 fps=342 q=-0.0 size=N/A time=00:04:25.01 bitrate=N/A speed=14.3x    frame= 6541 fps=343 q=-0.0 size=N/A time=00:04:32.81 bitrate=N/A speed=14.3x    frame= 6735 fps=344 q=-0.0 size=N/A time=00:04:40.90 bitrate=N/A speed=14.3x    frame= 6930 fps=345 q=-0.0 size=N/A time=00:04:49.03 bitrate=N/A speed=14.4x    frame= 7110 fps=345 q=-0.0 size=N/A time=00:04:56.54 bitrate=N/A speed=14.4x    frame= 7303 fps=345 q=-0.0 size=N/A time=00:05:04.59 bitrate=N/A speed=14.4x    frame= 7487 fps=346 q=-0.0 size=N/A time=00:05:12.27 bitrate=N/A speed=14.4x    frame= 7669 fps=346 q=-0.0 size=N/A time=00:05:19.86 bitrate=N/A speed=14.4x    frame= 7860 fps=346 q=-0.0 size=N/A time=00:05:27.82 bitrate=N/A speed=14.4x    frame= 8049 fps=347 q=-0.0 size=N/A time=00:05:35.71 bitrate=N/A speed=14.5x    frame= 8233 fps=347 q=-0.0 size=N/A time=00:05:43.38 bitrate=N/A speed=14.5x    frame= 8426 fps=348 q=-0.0 size=N/A time=00:05:51.43 bitrate=N/A speed=14.5x    frame= 8623 fps=348 q=-0.0 size=N/A time=00:05:59.65 bitrate=N/A speed=14.5x    frame= 8810 fps=349 q=-0.0 size=N/A time=00:06:07.45 bitrate=N/A speed=14.5x    frame= 8998 fps=349 q=-0.0 size=N/A time=00:06:15.29 bitrate=N/A speed=14.6x    frame= 9182 fps=349 q=-0.0 size=N/A time=00:06:22.96 bitrate=N/A speed=14.6x    frame= 9365 fps=349 q=-0.0 size=N/A time=00:06:30.59 bitrate=N/A speed=14.6x    frame= 9560 fps=350 q=-0.0 size=N/A time=00:06:38.73 bitrate=N/A speed=14.6x    frame= 9757 fps=350 q=-0.0 size=N/A time=00:06:46.94 bitrate=N/A speed=14.6x    frame= 9950 fps=351 q=-0.0 size=N/A time=00:06:54.99 bitrate=N/A speed=14.6x    frame=10141 fps=351 q=-0.0 size=N/A time=00:07:02.96 bitrate=N/A speed=14.6x    frame=10331 fps=352 q=-0.0 size=N/A time=00:07:10.88 bitrate=N/A speed=14.7x    frame=10522 fps=352 q=-0.0 size=N/A time=00:07:18.85 bitrate=N/A speed=14.7x    frame=10707 fps=352 q=-0.0 size=N/A time=00:07:26.57 bitrate=N/A speed=14.7x    frame=10896 fps=352 q=-0.0 size=N/A time=00:07:34.45 bitrate=N/A speed=14.7x    frame=11086 fps=353 q=-0.0 size=N/A time=00:07:42.37 bitrate=N/A speed=14.7x    frame=11267 fps=352 q=-0.0 size=N/A time=00:07:49.92 bitrate=N/A speed=14.7x    frame=11451 fps=353 q=-0.0 size=N/A time=00:07:57.60 bitrate=N/A speed=14.7x    frame=11638 fps=353 q=-0.0 size=N/A time=00:08:05.40 bitrate=N/A speed=14.7x    frame=11826 fps=353 q=-0.0 size=N/A time=00:08:13.24 bitrate=N/A speed=14.7x    frame=12017 fps=353 q=-0.0 size=N/A time=00:08:21.20 bitrate=N/A speed=14.7x    frame=12209 fps=353 q=-0.0 size=N/A time=00:08:29.21 bitrate=N/A speed=14.7x    frame=12408 fps=354 q=-0.0 size=N/A time=00:08:37.51 bitrate=N/A speed=14.8x    frame=12593 fps=354 q=-0.0 size=N/A time=00:08:45.23 bitrate=N/A speed=14.8x    frame=12794 fps=355 q=-0.0 size=N/A time=00:08:53.61 bitrate=N/A speed=14.8x    frame=12987 fps=355 q=-0.0 size=N/A time=00:09:01.66 bitrate=N/A speed=14.8x    frame=13178 fps=355 q=-0.0 size=N/A time=00:09:09.63 bitrate=N/A speed=14.8x    frame=13368 fps=355 q=-0.0 size=N/A time=00:09:17.55 bitrate=N/A speed=14.8x    frame=13555 fps=355 q=-0.0 size=N/A time=00:09:25.35 bitrate=N/A speed=14.8x    frame=13750 fps=355 q=-0.0 size=N/A time=00:09:33.48 bitrate=N/A speed=14.8x    frame=13935 fps=355 q=-0.0 size=N/A time=00:09:41.20 bitrate=N/A speed=14.8x    frame=14110 fps=355 q=-0.0 size=N/A time=00:09:48.50 bitrate=N/A speed=14.8x    frame=14289 fps=355 q=-0.0 size=N/A time=00:09:55.97 bitrate=N/A speed=14.8x    frame=14489 fps=356 q=-0.0 size=N/A time=00:10:04.31 bitrate=N/A speed=14.8x    frame=14672 fps=356 q=-0.0 size=N/A time=00:10:11.94 bitrate=N/A speed=14.8x    frame=14860 fps=356 q=-0.0 size=N/A time=00:10:19.78 bitrate=N/A speed=14.8x    frame=15047 fps=356 q=-0.0 size=N/A time=00:10:27.58 bitrate=N/A speed=14.8x    frame=15207 fps=355 q=-0.0 size=N/A time=00:10:34.25 bitrate=N/A speed=14.8x    frame=15388 fps=355 q=-0.0 size=N/A time=00:10:41.80 bitrate=N/A speed=14.8x    frame=15586 fps=356 q=-0.0 size=N/A time=00:10:50.06 bitrate=N/A speed=14.8x    frame=15776 fps=356 q=-0.0 size=N/A time=00:10:57.99 bitrate=N/A speed=14.8x    frame=15963 fps=356 q=-0.0 size=N/A time=00:11:05.79 bitrate=N/A speed=14.8x    frame=16151 fps=356 q=-0.0 size=N/A time=00:11:13.63 bitrate=N/A speed=14.8x    frame=16347 fps=356 q=-0.0 size=N/A time=00:11:21.80 bitrate=N/A speed=14.9x    frame=16533 fps=356 q=-0.0 size=N/A time=00:11:29.56 bitrate=N/A speed=14.9x    frame=16732 fps=357 q=-0.0 size=N/A time=00:11:37.86 bitrate=N/A speed=14.9x    frame=16925 fps=357 q=-0.0 size=N/A time=00:11:45.91 bitrate=N/A speed=14.9x    frame=17118 fps=357 q=-0.0 size=N/A time=00:11:53.96 bitrate=N/A speed=14.9x    frame=17317 fps=357 q=-0.0 size=N/A time=00:12:02.26 bitrate=N/A speed=14.9x    frame=17501 fps=357 q=-0.0 size=N/A time=00:12:09.93 bitrate=N/A speed=14.9x    frame=17687 fps=357 q=-0.0 size=N/A time=00:12:17.69 bitrate=N/A speed=14.9x    frame=17880 fps=357 q=-0.0 size=N/A time=00:12:25.74 bitrate=N/A speed=14.9x    frame=18073 fps=358 q=-0.0 size=N/A time=00:12:33.79 bitrate=N/A speed=14.9x    frame=18257 fps=358 q=-0.0 size=N/A time=00:12:41.46 bitrate=N/A speed=14.9x    frame=18446 fps=358 q=-0.0 size=N/A time=00:12:49.35 bitrate=N/A speed=14.9x    frame=18629 fps=358 q=-0.0 size=N/A time=00:12:56.98 bitrate=N/A speed=14.9x    frame=18821 fps=358 q=-0.0 size=N/A time=00:13:04.99 bitrate=N/A speed=14.9x    frame=19012 fps=358 q=-0.0 size=N/A time=00:13:12.95 bitrate=N/A speed=14.9x    frame=19218 fps=358 q=-0.0 size=N/A time=00:13:21.55 bitrate=N/A speed=14.9x    frame=19409 fps=358 q=-0.0 size=N/A time=00:13:29.51 bitrate=N/A speed=14.9x    frame=19593 fps=358 q=-0.0 size=N/A time=00:13:37.19 bitrate=N/A speed=14.9x    frame=19780 fps=358 q=-0.0 size=N/A time=00:13:44.99 bitrate=N/A speed=  15x    frame=19974 fps=359 q=-0.0 size=N/A time=00:13:53.08 bitrate=N/A speed=  15x    frame=20170 fps=359 q=-0.0 size=N/A time=00:14:01.25 bitrate=N/A speed=  15x    frame=20357 fps=359 q=-0.0 size=N/A time=00:14:09.05 bitrate=N/A speed=  15x    frame=20540 fps=359 q=-0.0 size=N/A time=00:14:16.68 bitrate=N/A speed=  15x    frame=20723 fps=359 q=-0.0 size=N/A time=00:14:24.32 bitrate=N/A speed=  15x    frame=20909 fps=359 q=-0.0 size=N/A time=00:14:32.07 bitrate=N/A speed=  15x    frame=21095 fps=359 q=-0.0 size=N/A time=00:14:39.83 bitrate=N/A speed=  15x    frame=21286 fps=359 q=-0.0 size=N/A time=00:14:47.80 bitrate=N/A speed=  15x    frame=21463 fps=359 q=-0.0 size=N/A time=00:14:55.18 bitrate=N/A speed=  15x    frame=21655 fps=359 q=-0.0 size=N/A time=00:15:03.19 bitrate=N/A speed=  15x    frame=21848 fps=359 q=-0.0 size=N/A time=00:15:11.24 bitrate=N/A speed=  15x    frame=22040 fps=359 q=-0.0 size=N/A time=00:15:19.25 bitrate=N/A speed=  15x    frame=22231 fps=359 q=-0.0 size=N/A time=00:15:27.21 bitrate=N/A speed=  15x    frame=22418 fps=359 q=-0.0 size=N/A time=00:15:35.01 bitrate=N/A speed=  15x    frame=22615 fps=359 q=-0.0 size=N/A time=00:15:43.23 bitrate=N/A speed=  15x    frame=22799 fps=359 q=-0.0 size=N/A time=00:15:50.90 bitrate=N/A speed=  15x    frame=22981 fps=359 q=-0.0 size=N/A time=00:15:58.49 bitrate=N/A speed=  15x    frame=23174 fps=360 q=-0.0 size=N/A time=00:16:06.54 bitrate=N/A speed=  15x    frame=23373 fps=360 q=-0.0 size=N/A time=00:16:14.84 bitrate=N/A speed=  15x    frame=23566 fps=360 q=-0.0 size=N/A time=00:16:22.89 bitrate=N/A speed=  15x    frame=23764 fps=360 q=-0.0 size=N/A time=00:16:31.15 bitrate=N/A speed=  15x    frame=23952 fps=360 q=-0.0 size=N/A time=00:16:38.99 bitrate=N/A speed=  15x    frame=24146 fps=360 q=-0.0 size=N/A time=00:16:47.08 bitrate=N/A speed=  15x    frame=24343 fps=360 q=-0.0 size=N/A time=00:16:55.30 bitrate=N/A speed=  15x    frame=24538 fps=360 q=-0.0 size=N/A time=00:17:03.43 bitrate=N/A speed=  15x    frame=24733 fps=361 q=-0.0 size=N/A time=00:17:11.57 bitrate=N/A speed=  15x    frame=24928 fps=361 q=-0.0 size=N/A time=00:17:19.70 bitrate=N/A speed=  15x    frame=25122 fps=361 q=-0.0 size=N/A time=00:17:27.79 bitrate=N/A speed=  15x    frame=25321 fps=361 q=-0.0 size=N/A time=00:17:36.09 bitrate=N/A speed=15.1x    frame=25517 fps=361 q=-0.0 size=N/A time=00:17:44.27 bitrate=N/A speed=15.1x    frame=25708 fps=361 q=-0.0 size=N/A time=00:17:52.23 bitrate=N/A speed=15.1x    frame=25895 fps=361 q=-0.0 size=N/A time=00:18:00.03 bitrate=N/A speed=15.1x    frame=26090 fps=361 q=-0.0 size=N/A time=00:18:08.17 bitrate=N/A speed=15.1x    frame=26283 fps=361 q=-0.0 size=N/A time=00:18:16.22 bitrate=N/A speed=15.1x    frame=26472 fps=361 q=-0.0 size=N/A time=00:18:24.10 bitrate=N/A speed=15.1x    frame=26671 fps=362 q=-0.0 size=N/A time=00:18:32.40 bitrate=N/A speed=15.1x    frame=26859 fps=362 q=-0.0 size=N/A time=00:18:40.24 bitrate=N/A speed=15.1x    frame=27032 fps=361 q=-0.0 size=N/A time=00:18:47.45 bitrate=N/A speed=15.1x    frame=27214 fps=361 q=-0.0 size=N/A time=00:18:55.05 bitrate=N/A speed=15.1x    frame=27395 fps=361 q=-0.0 size=N/A time=00:19:02.59 bitrate=N/A speed=15.1x    frame=27577 fps=361 q=-0.0 size=N/A time=00:19:10.19 bitrate=N/A speed=15.1x    frame=27772 fps=361 q=-0.0 size=N/A time=00:19:18.32 bitrate=N/A speed=15.1x    frame=27961 fps=361 q=-0.0 size=N/A time=00:19:26.20 bitrate=N/A speed=15.1x    frame=28147 fps=361 q=-0.0 size=N/A time=00:19:33.96 bitrate=N/A speed=15.1x    frame=28338 fps=361 q=-0.0 size=N/A time=00:19:41.93 bitrate=N/A speed=15.1x    frame=28532 fps=362 q=-0.0 size=N/A time=00:19:50.02 bitrate=N/A speed=15.1x    frame=28714 fps=361 q=-0.0 size=N/A time=00:19:57.61 bitrate=N/A speed=15.1x    frame=28881 fps=361 q=-0.0 size=N/A time=00:20:04.57 bitrate=N/A speed=15.1x    frame=29045 fps=361 q=-0.0 size=N/A time=00:20:11.41 bitrate=N/A speed=15.1x    frame=29217 fps=361 q=-0.0 size=N/A time=00:20:18.59 bitrate=N/A speed=  15x    frame=29393 fps=361 q=-0.0 size=N/A time=00:20:25.93 bitrate=N/A speed=  15x    frame=29566 fps=360 q=-0.0 size=N/A time=00:20:33.14 bitrate=N/A speed=  15x    frame=29749 fps=360 q=-0.0 size=N/A time=00:20:40.78 bitrate=N/A speed=  15x    frame=29919 fps=360 q=-0.0 size=N/A time=00:20:47.87 bitrate=N/A speed=  15x    frame=30075 fps=360 q=-0.0 size=N/A time=00:20:54.37 bitrate=N/A speed=  15x    frame=30255 fps=360 q=-0.0 size=N/A time=00:21:01.88 bitrate=N/A speed=  15x    frame=30446 fps=360 q=-0.0 size=N/A time=00:21:09.85 bitrate=N/A speed=  15x    frame=30627 fps=360 q=-0.0 size=N/A time=00:21:17.40 bitrate=N/A speed=  15x    frame=30819 fps=360 q=-0.0 size=N/A time=00:21:25.40 bitrate=N/A speed=  15x    frame=31006 fps=360 q=-0.0 size=N/A time=00:21:33.20 bitrate=N/A speed=  15x    frame=31200 fps=360 q=-0.0 size=N/A time=00:21:41.30 bitrate=N/A speed=  15x    frame=31389 fps=360 q=-0.0 size=N/A time=00:21:49.18 bitrate=N/A speed=  15x    frame=31578 fps=360 q=-0.0 size=N/A time=00:21:57.06 bitrate=N/A speed=  15x    frame=31758 fps=360 q=-0.0 size=N/A time=00:22:04.57 bitrate=N/A speed=  15x    frame=31935 fps=360 q=-0.0 size=N/A time=00:22:11.95 bitrate=N/A speed=  15x    frame=32116 fps=360 q=-0.0 size=N/A time=00:22:19.50 bitrate=N/A speed=  15x    frame=32301 fps=360 q=-0.0 size=N/A time=00:22:27.22 bitrate=N/A speed=  15x    frame=32495 fps=360 q=-0.0 size=N/A time=00:22:35.31 bitrate=N/A speed=  15x    frame=32658 fps=360 q=-0.0 size=N/A time=00:22:42.11 bitrate=N/A speed=  15x    frame=32809 fps=359 q=-0.0 size=N/A time=00:22:48.40 bitrate=N/A speed=  15x    frame=32981 fps=359 q=-0.0 size=N/A time=00:22:55.58 bitrate=N/A speed=  15x    frame=33162 fps=359 q=-0.0 size=N/A time=00:23:03.13 bitrate=N/A speed=  15x    frame=33338 fps=359 q=-0.0 size=N/A time=00:23:10.47 bitrate=N/A speed=  15x    frame=33495 fps=359 q=-0.0 size=N/A time=00:23:17.02 bitrate=N/A speed=  15x    frame=33647 fps=358 q=-0.0 size=N/A time=00:23:23.36 bitrate=N/A speed=14.9x    frame=33788 fps=358 q=-0.0 size=N/A time=00:23:29.24 bitrate=N/A speed=14.9x    frame=33911 fps=357 q=-0.0 size=N/A time=00:23:34.37 bitrate=N/A speed=14.9x    frame=34074 fps=357 q=-0.0 size=N/A time=00:23:41.16 bitrate=N/A speed=14.9x    frame=34240 fps=357 q=-0.0 size=N/A time=00:23:48.09 bitrate=N/A speed=14.9x    frame=34371 fps=356 q=-0.0 size=N/A time=00:23:53.55 bitrate=N/A speed=14.9x    frame=34509 fps=356 q=-0.0 size=N/A time=00:23:59.31 bitrate=N/A speed=14.8x    [Parsed_psnr_16 @ 0000028ae07169c0] PSNR y:48.900553 u:50.347851 v:50.396402 average:49.337899 min:37.837705 max:inf
[out#0/null @ 0000028ad39cdec0] video:14903KiB audio:271276KiB subtitle:0KiB other streams:0KiB global headers:0KiB muxing overhead: unknown
frame=34683 fps=356 q=-0.0 Lsize=N/A time=00:24:06.57 bitrate=N/A speed=14.8x    
